<svg id="Capa_1" enable-background="new 0 0 512 512" height="512" viewBox="0 0 512 512" width="512" xmlns="http://www.w3.org/2000/svg"><g><path d="m52.172 17.5c-28.768 0-52.172 23.78-52.172 53.01.134.887-.072 186.968.062 187.441 1.27 28.091 24.155 50.549 52.11 50.549-6.948-.014 314.773.01 339.828 0 0-72.515 0-218.481 0-291z" fill="#72bbff"/><path d="m459.828 17.5h-97.828v291h97.828c28.768 0 52.172-23.78 52.172-53.01v-184.98c0-29.23-23.404-53.01-52.172-53.01z" fill="#463b84"/><g><path d="m392 17.5h-136v291h136c0-72.515 0-218.481 0-291z" fill="#0081ff"/></g><g><path d="m438 148.5v30h30c0-7.477 0-22.524 0-30z" fill="#aca6d6"/></g><g><path d="m392 124.975-120.744 71.914c-4.383-2.786-9.554-6.073-15.256-9.698v121.309h136c0-28.628 0-157.737 0-183.525z" fill="#bcbcd1"/><path d="m141.286 114.272c-34.848 26.193-106.228 79.844-141.286 106.195 0 0 .024 36.668.062 37.484 1.27 28.091 24.155 50.549 52.11 50.549h203.828v-121.309c-34.148-21.707-88.018-55.95-114.714-72.919z" fill="#e2e1f4"/></g><g><path d="m329.5 112.5c17.949 0 32.5-14.551 32.5-32.5 0-17.949-14.551-32.5-32.5-32.5-17.949 0-32.5 14.551-32.5 32.5 0 17.949 14.551 32.5 32.5 32.5z" fill="#ffd295"/><path d="m254.5 175.5c-21.815 0-39.5 17.685-39.5 39.5v187c0-16.845-13.655-30.5-30.5-30.5h-30.5v62c0 33.689 27.311 61 61 61h3 38l14-155-14-163.962c-.499-.019-.997-.038-1.5-.038z" fill="#ffd295"/><path d="m404 403.5c0-60.751-49.249-110-110-110v-78.5c0-21.312-16.881-38.672-38-39.462v318.962h148z" fill="#ffb54c"/></g></g></svg>